<mxfile host="Electron" modified="2023-10-27T15:15:16.217Z" agent="Mozilla/5.0 (Windows NT 10.0; Win64; x64) AppleWebKit/537.36 (KHTML, like Gecko) draw.io/22.0.3 Chrome/114.0.5735.289 Electron/25.8.4 Safari/537.36" etag="14UumLEQeWIvmYb-YtOI" version="22.0.3" type="device">
  <diagram name="Page-1" id="uusyuPtWQC3lofXgPWhZ">
    <mxGraphModel dx="1036" dy="654" grid="1" gridSize="10" guides="1" tooltips="1" connect="1" arrows="1" fold="1" page="1" pageScale="1" pageWidth="850" pageHeight="1100" math="0" shadow="0">
      <root>
        <mxCell id="0" />
        <mxCell id="1" parent="0" />
        <mxCell id="JmaIHFwTn8H2zfp1c5Yl-1" value="" style="ellipse;html=1;shape=endState;fillColor=#000000;strokeColor=#ff0000;" vertex="1" parent="1">
          <mxGeometry x="30" y="410" width="30" height="30" as="geometry" />
        </mxCell>
        <mxCell id="JmaIHFwTn8H2zfp1c5Yl-4" style="edgeStyle=orthogonalEdgeStyle;rounded=0;orthogonalLoop=1;jettySize=auto;html=1;entryX=0.5;entryY=0;entryDx=0;entryDy=0;" edge="1" parent="1" source="JmaIHFwTn8H2zfp1c5Yl-3" target="JmaIHFwTn8H2zfp1c5Yl-1">
          <mxGeometry relative="1" as="geometry">
            <Array as="points">
              <mxPoint x="340" y="70" />
              <mxPoint x="45" y="70" />
            </Array>
          </mxGeometry>
        </mxCell>
        <mxCell id="JmaIHFwTn8H2zfp1c5Yl-7" style="edgeStyle=orthogonalEdgeStyle;rounded=0;orthogonalLoop=1;jettySize=auto;html=1;" edge="1" parent="1" source="JmaIHFwTn8H2zfp1c5Yl-3" target="JmaIHFwTn8H2zfp1c5Yl-6">
          <mxGeometry relative="1" as="geometry" />
        </mxCell>
        <mxCell id="JmaIHFwTn8H2zfp1c5Yl-3" value="Application closed?" style="html=1;whiteSpace=wrap;" vertex="1" parent="1">
          <mxGeometry x="315" y="10" width="110" height="50" as="geometry" />
        </mxCell>
        <mxCell id="JmaIHFwTn8H2zfp1c5Yl-5" value="True" style="text;html=1;align=center;verticalAlign=middle;resizable=0;points=[];autosize=1;strokeColor=none;fillColor=none;" vertex="1" parent="1">
          <mxGeometry x="50" y="150" width="50" height="30" as="geometry" />
        </mxCell>
        <mxCell id="JmaIHFwTn8H2zfp1c5Yl-10" style="edgeStyle=orthogonalEdgeStyle;rounded=0;orthogonalLoop=1;jettySize=auto;html=1;" edge="1" parent="1" source="JmaIHFwTn8H2zfp1c5Yl-6" target="JmaIHFwTn8H2zfp1c5Yl-9">
          <mxGeometry relative="1" as="geometry" />
        </mxCell>
        <mxCell id="JmaIHFwTn8H2zfp1c5Yl-6" value="Refresh frame" style="html=1;whiteSpace=wrap;" vertex="1" parent="1">
          <mxGeometry x="540" y="60" width="110" height="50" as="geometry" />
        </mxCell>
        <mxCell id="JmaIHFwTn8H2zfp1c5Yl-8" value="False" style="text;html=1;align=center;verticalAlign=middle;resizable=0;points=[];autosize=1;strokeColor=none;fillColor=none;" vertex="1" parent="1">
          <mxGeometry x="425" y="10" width="50" height="30" as="geometry" />
        </mxCell>
        <mxCell id="JmaIHFwTn8H2zfp1c5Yl-13" style="edgeStyle=orthogonalEdgeStyle;rounded=0;orthogonalLoop=1;jettySize=auto;html=1;" edge="1" parent="1" source="JmaIHFwTn8H2zfp1c5Yl-9" target="JmaIHFwTn8H2zfp1c5Yl-12">
          <mxGeometry relative="1" as="geometry" />
        </mxCell>
        <mxCell id="JmaIHFwTn8H2zfp1c5Yl-9" value="Detect object in frame" style="html=1;whiteSpace=wrap;" vertex="1" parent="1">
          <mxGeometry x="540" y="160" width="110" height="50" as="geometry" />
        </mxCell>
        <mxCell id="JmaIHFwTn8H2zfp1c5Yl-11" value="Frame&lt;br&gt;refreshed" style="text;html=1;align=center;verticalAlign=middle;resizable=0;points=[];autosize=1;strokeColor=none;fillColor=none;" vertex="1" parent="1">
          <mxGeometry x="590" y="120" width="70" height="40" as="geometry" />
        </mxCell>
        <mxCell id="JmaIHFwTn8H2zfp1c5Yl-42" style="edgeStyle=orthogonalEdgeStyle;rounded=0;orthogonalLoop=1;jettySize=auto;html=1;entryX=1;entryY=0.5;entryDx=0;entryDy=0;" edge="1" parent="1" source="JmaIHFwTn8H2zfp1c5Yl-12" target="JmaIHFwTn8H2zfp1c5Yl-23">
          <mxGeometry relative="1" as="geometry" />
        </mxCell>
        <mxCell id="JmaIHFwTn8H2zfp1c5Yl-12" value="Update image and draw shapes in UI" style="html=1;whiteSpace=wrap;" vertex="1" parent="1">
          <mxGeometry x="540" y="260" width="110" height="50" as="geometry" />
        </mxCell>
        <mxCell id="JmaIHFwTn8H2zfp1c5Yl-14" value="Objects&lt;br&gt;detected" style="text;html=1;align=center;verticalAlign=middle;resizable=0;points=[];autosize=1;strokeColor=none;fillColor=none;" vertex="1" parent="1">
          <mxGeometry x="590" y="220" width="70" height="40" as="geometry" />
        </mxCell>
        <mxCell id="JmaIHFwTn8H2zfp1c5Yl-17" value="" style="endArrow=none;html=1;rounded=0;" edge="1" parent="1">
          <mxGeometry width="50" height="50" relative="1" as="geometry">
            <mxPoint x="520" y="620" as="sourcePoint" />
            <mxPoint x="520" y="10" as="targetPoint" />
          </mxGeometry>
        </mxCell>
        <mxCell id="JmaIHFwTn8H2zfp1c5Yl-18" value="" style="endArrow=none;html=1;rounded=0;" edge="1" parent="1">
          <mxGeometry width="50" height="50" relative="1" as="geometry">
            <mxPoint x="520" y="10" as="sourcePoint" />
            <mxPoint x="670" y="10" as="targetPoint" />
          </mxGeometry>
        </mxCell>
        <mxCell id="JmaIHFwTn8H2zfp1c5Yl-19" value="" style="endArrow=none;html=1;rounded=0;" edge="1" parent="1">
          <mxGeometry width="50" height="50" relative="1" as="geometry">
            <mxPoint x="670" y="620" as="sourcePoint" />
            <mxPoint x="670" y="10" as="targetPoint" />
          </mxGeometry>
        </mxCell>
        <mxCell id="JmaIHFwTn8H2zfp1c5Yl-20" value="" style="endArrow=none;html=1;rounded=0;" edge="1" parent="1">
          <mxGeometry width="50" height="50" relative="1" as="geometry">
            <mxPoint x="520" y="620" as="sourcePoint" />
            <mxPoint x="670" y="620" as="targetPoint" />
          </mxGeometry>
        </mxCell>
        <mxCell id="JmaIHFwTn8H2zfp1c5Yl-21" value="" style="endArrow=none;html=1;rounded=0;" edge="1" parent="1">
          <mxGeometry width="50" height="50" relative="1" as="geometry">
            <mxPoint x="520" y="40" as="sourcePoint" />
            <mxPoint x="670" y="40" as="targetPoint" />
          </mxGeometry>
        </mxCell>
        <mxCell id="JmaIHFwTn8H2zfp1c5Yl-22" value="Internal software" style="text;html=1;align=center;verticalAlign=middle;resizable=0;points=[];autosize=1;strokeColor=none;fillColor=none;" vertex="1" parent="1">
          <mxGeometry x="540" y="10" width="110" height="30" as="geometry" />
        </mxCell>
        <mxCell id="JmaIHFwTn8H2zfp1c5Yl-45" style="edgeStyle=orthogonalEdgeStyle;rounded=0;orthogonalLoop=1;jettySize=auto;html=1;entryX=0;entryY=0.5;entryDx=0;entryDy=0;" edge="1" parent="1" source="JmaIHFwTn8H2zfp1c5Yl-23" target="JmaIHFwTn8H2zfp1c5Yl-31">
          <mxGeometry relative="1" as="geometry">
            <Array as="points">
              <mxPoint x="400" y="383" />
            </Array>
          </mxGeometry>
        </mxCell>
        <mxCell id="JmaIHFwTn8H2zfp1c5Yl-23" value="Update image and draw shapes in UI" style="html=1;whiteSpace=wrap;" vertex="1" parent="1">
          <mxGeometry x="330" y="280" width="110" height="50" as="geometry" />
        </mxCell>
        <mxCell id="JmaIHFwTn8H2zfp1c5Yl-25" value="image&lt;br&gt;updated&lt;br&gt;and&lt;br&gt;shapes&lt;br&gt;drawn" style="text;html=1;align=center;verticalAlign=middle;resizable=0;points=[];autosize=1;strokeColor=none;fillColor=none;" vertex="1" parent="1">
          <mxGeometry x="455" y="195" width="70" height="90" as="geometry" />
        </mxCell>
        <mxCell id="JmaIHFwTn8H2zfp1c5Yl-40" style="edgeStyle=orthogonalEdgeStyle;rounded=0;orthogonalLoop=1;jettySize=auto;html=1;entryX=0.5;entryY=0;entryDx=0;entryDy=0;" edge="1" parent="1" source="JmaIHFwTn8H2zfp1c5Yl-31" target="JmaIHFwTn8H2zfp1c5Yl-39">
          <mxGeometry relative="1" as="geometry" />
        </mxCell>
        <mxCell id="JmaIHFwTn8H2zfp1c5Yl-65" style="edgeStyle=orthogonalEdgeStyle;rounded=0;orthogonalLoop=1;jettySize=auto;html=1;entryX=0.5;entryY=1;entryDx=0;entryDy=0;" edge="1" parent="1" source="JmaIHFwTn8H2zfp1c5Yl-31" target="JmaIHFwTn8H2zfp1c5Yl-1">
          <mxGeometry relative="1" as="geometry">
            <Array as="points">
              <mxPoint x="730" y="383" />
              <mxPoint x="730" y="640" />
              <mxPoint x="45" y="640" />
            </Array>
          </mxGeometry>
        </mxCell>
        <mxCell id="JmaIHFwTn8H2zfp1c5Yl-31" value="Application closed?" style="html=1;whiteSpace=wrap;" vertex="1" parent="1">
          <mxGeometry x="540" y="357.5" width="110" height="50" as="geometry" />
        </mxCell>
        <mxCell id="JmaIHFwTn8H2zfp1c5Yl-33" value="User&lt;br&gt;selected&lt;br&gt;shape" style="text;html=1;align=center;verticalAlign=middle;resizable=0;points=[];autosize=1;strokeColor=none;fillColor=none;" vertex="1" parent="1">
          <mxGeometry x="455" y="330" width="70" height="60" as="geometry" />
        </mxCell>
        <mxCell id="JmaIHFwTn8H2zfp1c5Yl-36" value="True" style="text;html=1;align=center;verticalAlign=middle;resizable=0;points=[];autosize=1;strokeColor=none;fillColor=none;" vertex="1" parent="1">
          <mxGeometry x="670" y="360" width="50" height="30" as="geometry" />
        </mxCell>
        <mxCell id="JmaIHFwTn8H2zfp1c5Yl-37" value="Start" style="text;html=1;align=center;verticalAlign=middle;resizable=0;points=[];autosize=1;strokeColor=none;fillColor=none;" vertex="1" parent="1">
          <mxGeometry x="10" y="20" width="50" height="30" as="geometry" />
        </mxCell>
        <mxCell id="JmaIHFwTn8H2zfp1c5Yl-38" value="End" style="text;html=1;align=center;verticalAlign=middle;resizable=0;points=[];autosize=1;strokeColor=none;fillColor=none;" vertex="1" parent="1">
          <mxGeometry x="50" y="412.5" width="40" height="30" as="geometry" />
        </mxCell>
        <mxCell id="JmaIHFwTn8H2zfp1c5Yl-47" style="edgeStyle=orthogonalEdgeStyle;rounded=0;orthogonalLoop=1;jettySize=auto;html=1;" edge="1" parent="1" source="JmaIHFwTn8H2zfp1c5Yl-39" target="JmaIHFwTn8H2zfp1c5Yl-46">
          <mxGeometry relative="1" as="geometry" />
        </mxCell>
        <mxCell id="JmaIHFwTn8H2zfp1c5Yl-39" value="Check if user clicked screen" style="html=1;whiteSpace=wrap;" vertex="1" parent="1">
          <mxGeometry x="540" y="442.5" width="110" height="50" as="geometry" />
        </mxCell>
        <mxCell id="JmaIHFwTn8H2zfp1c5Yl-41" value="False" style="text;html=1;align=center;verticalAlign=middle;resizable=0;points=[];autosize=1;strokeColor=none;fillColor=none;" vertex="1" parent="1">
          <mxGeometry x="545" y="412.5" width="50" height="30" as="geometry" />
        </mxCell>
        <mxCell id="JmaIHFwTn8H2zfp1c5Yl-50" style="edgeStyle=orthogonalEdgeStyle;rounded=0;orthogonalLoop=1;jettySize=auto;html=1;entryX=1;entryY=0.5;entryDx=0;entryDy=0;" edge="1" parent="1" source="JmaIHFwTn8H2zfp1c5Yl-46" target="JmaIHFwTn8H2zfp1c5Yl-49">
          <mxGeometry relative="1" as="geometry" />
        </mxCell>
        <mxCell id="JmaIHFwTn8H2zfp1c5Yl-46" value="Check if clicked spot is within object bounderies" style="html=1;whiteSpace=wrap;" vertex="1" parent="1">
          <mxGeometry x="540" y="540" width="110" height="50" as="geometry" />
        </mxCell>
        <mxCell id="JmaIHFwTn8H2zfp1c5Yl-48" value="True" style="text;html=1;align=center;verticalAlign=middle;resizable=0;points=[];autosize=1;strokeColor=none;fillColor=none;" vertex="1" parent="1">
          <mxGeometry x="585" y="498" width="50" height="30" as="geometry" />
        </mxCell>
        <mxCell id="JmaIHFwTn8H2zfp1c5Yl-52" style="edgeStyle=orthogonalEdgeStyle;rounded=0;orthogonalLoop=1;jettySize=auto;html=1;entryX=0.75;entryY=1;entryDx=0;entryDy=0;" edge="1" parent="1" source="JmaIHFwTn8H2zfp1c5Yl-49" target="JmaIHFwTn8H2zfp1c5Yl-3">
          <mxGeometry relative="1" as="geometry" />
        </mxCell>
        <mxCell id="JmaIHFwTn8H2zfp1c5Yl-49" value="Move the object" style="html=1;whiteSpace=wrap;" vertex="1" parent="1">
          <mxGeometry x="330" y="540" width="110" height="50" as="geometry" />
        </mxCell>
        <mxCell id="JmaIHFwTn8H2zfp1c5Yl-51" value="True" style="text;html=1;align=center;verticalAlign=middle;resizable=0;points=[];autosize=1;strokeColor=none;fillColor=none;" vertex="1" parent="1">
          <mxGeometry x="465" y="538" width="50" height="30" as="geometry" />
        </mxCell>
        <mxCell id="JmaIHFwTn8H2zfp1c5Yl-53" value="Object fully&lt;br&gt;moved" style="text;html=1;align=center;verticalAlign=middle;resizable=0;points=[];autosize=1;strokeColor=none;fillColor=none;" vertex="1" parent="1">
          <mxGeometry x="200" y="528" width="80" height="40" as="geometry" />
        </mxCell>
        <mxCell id="JmaIHFwTn8H2zfp1c5Yl-54" value="" style="endArrow=none;html=1;rounded=0;" edge="1" parent="1">
          <mxGeometry width="50" height="50" relative="1" as="geometry">
            <mxPoint x="310" y="610" as="sourcePoint" />
            <mxPoint x="310" y="230" as="targetPoint" />
          </mxGeometry>
        </mxCell>
        <mxCell id="JmaIHFwTn8H2zfp1c5Yl-55" value="" style="endArrow=none;html=1;rounded=0;" edge="1" parent="1">
          <mxGeometry width="50" height="50" relative="1" as="geometry">
            <mxPoint x="455" y="610" as="sourcePoint" />
            <mxPoint x="455" y="230" as="targetPoint" />
          </mxGeometry>
        </mxCell>
        <mxCell id="JmaIHFwTn8H2zfp1c5Yl-56" value="" style="endArrow=none;html=1;rounded=0;entryX=0.014;entryY=0.391;entryDx=0;entryDy=0;entryPerimeter=0;" edge="1" parent="1" target="JmaIHFwTn8H2zfp1c5Yl-25">
          <mxGeometry width="50" height="50" relative="1" as="geometry">
            <mxPoint x="310" y="230" as="sourcePoint" />
            <mxPoint x="360" y="180" as="targetPoint" />
          </mxGeometry>
        </mxCell>
        <mxCell id="JmaIHFwTn8H2zfp1c5Yl-58" value="" style="endArrow=none;html=1;rounded=0;entryX=0.014;entryY=0.391;entryDx=0;entryDy=0;entryPerimeter=0;" edge="1" parent="1">
          <mxGeometry width="50" height="50" relative="1" as="geometry">
            <mxPoint x="309" y="610" as="sourcePoint" />
            <mxPoint x="455" y="610" as="targetPoint" />
          </mxGeometry>
        </mxCell>
        <mxCell id="JmaIHFwTn8H2zfp1c5Yl-60" value="Visuals" style="text;html=1;align=center;verticalAlign=middle;resizable=0;points=[];autosize=1;strokeColor=none;fillColor=none;" vertex="1" parent="1">
          <mxGeometry x="355" y="230" width="60" height="30" as="geometry" />
        </mxCell>
        <mxCell id="JmaIHFwTn8H2zfp1c5Yl-62" value="" style="endArrow=none;html=1;rounded=0;entryX=0.014;entryY=0.391;entryDx=0;entryDy=0;entryPerimeter=0;" edge="1" parent="1">
          <mxGeometry width="50" height="50" relative="1" as="geometry">
            <mxPoint x="309" y="260" as="sourcePoint" />
            <mxPoint x="455" y="260" as="targetPoint" />
          </mxGeometry>
        </mxCell>
        <mxCell id="JmaIHFwTn8H2zfp1c5Yl-69" style="edgeStyle=orthogonalEdgeStyle;rounded=0;orthogonalLoop=1;jettySize=auto;html=1;" edge="1" parent="1" source="JmaIHFwTn8H2zfp1c5Yl-66" target="JmaIHFwTn8H2zfp1c5Yl-3">
          <mxGeometry relative="1" as="geometry" />
        </mxCell>
        <mxCell id="JmaIHFwTn8H2zfp1c5Yl-66" value="Whole program initiazition" style="html=1;whiteSpace=wrap;" vertex="1" parent="1">
          <mxGeometry x="120" y="10" width="110" height="50" as="geometry" />
        </mxCell>
        <mxCell id="JmaIHFwTn8H2zfp1c5Yl-67" value="" style="ellipse;html=1;shape=startState;fillColor=#000000;strokeColor=#ff0000;" vertex="1" parent="1">
          <mxGeometry x="50" y="20" width="30" height="30" as="geometry" />
        </mxCell>
        <mxCell id="JmaIHFwTn8H2zfp1c5Yl-68" value="" style="edgeStyle=orthogonalEdgeStyle;html=1;verticalAlign=bottom;endArrow=open;endSize=8;strokeColor=#ff0000;rounded=0;entryX=0;entryY=0.5;entryDx=0;entryDy=0;" edge="1" parent="1" target="JmaIHFwTn8H2zfp1c5Yl-66">
          <mxGeometry relative="1" as="geometry">
            <mxPoint x="65" y="110" as="targetPoint" />
            <mxPoint x="70" y="35" as="sourcePoint" />
          </mxGeometry>
        </mxCell>
        <mxCell id="JmaIHFwTn8H2zfp1c5Yl-71" value="Initialization&lt;br&gt;complete" style="text;html=1;align=center;verticalAlign=middle;resizable=0;points=[];autosize=1;strokeColor=none;fillColor=none;" vertex="1" parent="1">
          <mxGeometry x="225" width="90" height="40" as="geometry" />
        </mxCell>
      </root>
    </mxGraphModel>
  </diagram>
</mxfile>
